<svg width="18" height="11" viewBox="0 0 18 11" fill="none" xmlns="http://www.w3.org/2000/svg">
<path fill-rule="evenodd" clip-rule="evenodd" d="M0.162109 5.46286C0.162109 5.31964 0.216423 5.18229 0.313102 5.08101C0.409781 4.97974 0.540906 4.92285 0.677631 4.92285H16.0769L12.8322 1.52508C12.7354 1.42368 12.681 1.28615 12.681 1.14275C12.681 0.999346 12.7354 0.861817 12.8322 0.760417C12.929 0.659017 13.0603 0.602051 13.1972 0.602051C13.3341 0.602051 13.4654 0.659017 13.5622 0.760417L17.6863 5.08053C17.7343 5.13069 17.7724 5.19029 17.7984 5.25589C17.8244 5.3215 17.8378 5.39183 17.8378 5.46286C17.8378 5.53389 17.8244 5.60422 17.7984 5.66983C17.7724 5.73544 17.7343 5.79503 17.6863 5.84519L13.5622 10.1653C13.4654 10.2667 13.3341 10.3237 13.1972 10.3237C13.0603 10.3237 12.929 10.2667 12.8322 10.1653C12.7354 10.0639 12.681 9.92638 12.681 9.78298C12.681 9.63957 12.7354 9.50205 12.8322 9.40065L16.0769 6.00288H0.677631C0.540906 6.00288 0.409781 5.94598 0.313102 5.84471C0.216423 5.74344 0.162109 5.60608 0.162109 5.46286Z" fill="black"/>
</svg>
