<svg width="18" height="20" viewBox="0 0 20 20" fill="none" xmlns="http://www.w3.org/2000/svg">
<path d="M8.99911 0.869141C5.3412 0.869141 2.34134 3.6721 2.34134 7.17536V11.7391C1.36361 12.0499 0.570858 12.8106 0.570858 13.8866C0.570858 15.2153 1.66337 16.3029 2.99221 16.3029H5.58679C5.89263 17.9081 7.3075 19.1295 8.99911 19.1293C10.6907 19.1295 12.1098 17.9081 12.4165 16.3029H15.0073C16.3361 16.3029 17.4286 15.2153 17.4286 13.8866C17.4286 12.8122 16.6375 12.0512 15.662 11.7391V7.17536C15.662 3.6721 12.657 0.869143 8.99911 0.869141ZM8.99911 2.17344C11.9985 2.17344 14.3577 4.41627 14.3577 7.17536V12.12C14.3564 12.4801 14.6471 12.7732 15.0073 12.7747C15.6365 12.7747 16.1243 13.2583 16.1243 13.8866C16.1243 14.5149 15.6365 14.9986 15.0073 14.9986C11.0023 14.9986 6.99724 14.9986 2.99221 14.9986C2.36301 14.9986 1.87515 14.5149 1.87515 13.8866C1.87515 13.2583 2.36301 12.7747 2.99221 12.7747C3.35436 12.776 3.64829 12.4821 3.64691 12.12V7.17536C3.64691 4.41627 5.99968 2.17344 8.99911 2.17344ZM7.09362 16.3029H10.9059C10.6097 17.15 9.95253 17.8239 8.99911 17.8237C8.04569 17.8239 7.38979 17.15 7.09362 16.3029Z" fill="black"/>
</svg>
