<svg viewBox="0 0 24 25" fill="none" xmlns="http://www.w3.org/2000/svg">
<path d="M21.822 7.931C21.73 7.79808 21.6072 7.68943 21.464 7.61436C21.3209 7.5393 21.1616 7.50006 21 7.5H7.333L6.179 4.73C6.02769 4.36523 5.77147 4.05359 5.44282 3.83462C5.11418 3.61564 4.72791 3.49918 4.333 3.5H2V5.5H4.333L9.077 16.885C9.15299 17.0672 9.28118 17.2228 9.44542 17.3322C9.60967 17.4416 9.80263 17.5 10 17.5H18C18.417 17.5 18.79 17.241 18.937 16.852L21.937 8.852C21.9937 8.70063 22.0129 8.53776 21.9928 8.37735C21.9728 8.21695 21.9142 8.06379 21.822 7.931Z" fill="white"/>
<path d="M10.5 21.5C11.3284 21.5 12 20.8284 12 20C12 19.1716 11.3284 18.5 10.5 18.5C9.67157 18.5 9 19.1716 9 20C9 20.8284 9.67157 21.5 10.5 21.5Z" fill="white"/>
<path d="M17.5 21.5C18.3284 21.5 19 20.8284 19 20C19 19.1716 18.3284 18.5 17.5 18.5C16.6716 18.5 16 19.1716 16 20C16 20.8284 16.6716 21.5 17.5 21.5Z" fill="white"/>
</svg>
