<svg width="20" height="20" viewBox="0 0 20 20" fill="none" xmlns="http://www.w3.org/2000/svg">
<path d="M8.18992 8.39062C7.61992 8.39062 7.16992 8.89063 7.16992 9.50063C7.16992 10.1106 7.62992 10.6106 8.18992 10.6106C8.75992 10.6106 9.20992 10.1106 9.20992 9.50063C9.21992 8.89063 8.75992 8.39062 8.18992 8.39062ZM11.8399 8.39062C11.2699 8.39062 10.8199 8.89063 10.8199 9.50063C10.8199 10.1106 11.2799 10.6106 11.8399 10.6106C12.4099 10.6106 12.8599 10.1106 12.8599 9.50063C12.8599 8.89063 12.4099 8.39062 11.8399 8.39062Z" fill="black"/>
<path d="M16.7 0H3.3C2.17 0 1.25 0.92 1.25 2.06V15.58C1.25 16.72 2.17 17.64 3.3 17.64H14.64L14.11 15.79L15.39 16.98L16.6 18.1L18.75 20V2.06C18.75 0.92 17.83 0 16.7 0ZM12.84 13.06C12.84 13.06 12.48 12.63 12.18 12.25C13.49 11.88 13.99 11.06 13.99 11.06C13.58 11.33 13.19 11.52 12.84 11.65C12.34 11.86 11.86 12 11.39 12.08C10.5336 12.2377 9.65521 12.2343 8.8 12.07C8.29792 11.9718 7.80587 11.8278 7.33 11.64C7.07916 11.5435 6.83525 11.4299 6.6 11.3C6.57 11.28 6.54 11.27 6.51 11.25C6.49 11.24 6.48 11.23 6.47 11.22C6.29 11.12 6.19 11.05 6.19 11.05C6.19 11.05 6.67 11.85 7.94 12.23C7.64 12.61 7.27 13.06 7.27 13.06C5.06 12.99 4.22 11.54 4.22 11.54C4.22 8.32 5.66 5.71 5.66 5.71C7.1 4.63 8.47 4.66 8.47 4.66L8.57 4.78C6.77 5.3 5.94 6.09 5.94 6.09C5.94 6.09 6.16 5.97 6.53 5.8C7.6 5.33 8.45 5.2 8.8 5.17C8.86 5.16 8.91 5.15 8.97 5.15C10.7041 4.91529 12.4677 5.24487 14 6.09C14 6.09 13.21 5.34 11.51 4.82L11.65 4.66C11.65 4.66 13.02 4.63 14.46 5.71C14.46 5.71 15.9 8.32 15.9 11.54C15.9 11.54 15.05 12.99 12.84 13.06Z" fill="black"/>
</svg>
