<svg viewBox="0 0 25 25" fill="none" xmlns="http://www.w3.org/2000/svg">
<path d="M18.2879 0.266479H7.53412C3.88221 0.266479 0.911133 3.2377 0.911133 6.88961V17.6433C0.911133 21.2954 3.88221 24.2665 7.53412 24.2665H18.2879C21.9401 24.2665 24.9111 21.2953 24.9111 17.6433V6.88961C24.9113 3.2377 21.9401 0.266479 18.2879 0.266479ZM22.7819 17.6433C22.7819 20.1213 20.7659 22.1371 18.288 22.1371H7.53412C5.05636 22.1372 3.04053 20.1213 3.04053 17.6433V6.88961C3.04053 4.41185 5.05636 2.39588 7.53412 2.39588H18.2879C20.7658 2.39588 22.7817 4.41185 22.7817 6.88961L22.7819 17.6433Z" fill="#212121"/>
<path d="M12.9111 6.08256C9.50107 6.08256 6.72689 8.85674 6.72689 12.2668C6.72689 15.6766 9.50107 18.4507 12.9111 18.4507C16.3211 18.4507 19.0953 15.6766 19.0953 12.2668C19.0953 8.85674 16.3211 6.08256 12.9111 6.08256ZM12.9111 16.3211C10.6754 16.3211 8.85628 14.5023 8.85628 12.2666C8.85628 10.0307 10.6752 8.21181 12.9111 8.21181C15.1469 8.21181 16.9659 10.0307 16.9659 12.2666C16.9659 14.5023 15.1468 16.3211 12.9111 16.3211Z" fill="#212121"/>
<path d="M19.3547 4.2769C18.9444 4.2769 18.5414 4.44299 18.2517 4.73401C17.9605 5.0236 17.7931 5.42677 17.7931 5.83845C17.7931 6.24886 17.9606 6.65188 18.2517 6.9429C18.5413 7.2325 18.9444 7.40001 19.3547 7.40001C19.7664 7.40001 20.1681 7.2325 20.4591 6.9429C20.7502 6.65188 20.9162 6.24872 20.9162 5.83845C20.9162 5.42677 20.7502 5.0236 20.4591 4.73401C20.1695 4.44299 19.7664 4.2769 19.3547 4.2769Z" fill="#212121"/>
</svg>
