<svg width="18" height="18" viewBox="0 0 18 18" fill="none" xmlns="http://www.w3.org/2000/svg">
<path d="M0 0V18H18V0H0ZM14.9529 4.26544L13.9888 5.19131C13.9474 5.22166 13.9153 5.26297 13.8962 5.31057C13.877 5.35817 13.8715 5.41019 13.8802 5.46075V12.2608C13.8714 12.3118 13.8768 12.3642 13.896 12.4123C13.9152 12.4604 13.9473 12.5022 13.9888 12.5331L14.9293 13.4589V13.6609H10.1891V13.4589L11.1645 12.5094C11.2612 12.4127 11.2613 12.3863 11.2613 12.24V6.741L8.5455 13.6372H8.17931L5.01806 6.741V11.3642C4.99162 11.5577 5.05631 11.754 5.19075 11.8946L6.462 13.4359V13.6378H2.86144V13.4359L4.13269 11.8946C4.26769 11.754 4.329 11.5577 4.29356 11.3642V6.02044C4.3018 5.94713 4.29225 5.87291 4.26571 5.80407C4.23918 5.73524 4.19644 5.67381 4.14113 5.625L3.01331 4.26544V4.06012H6.51713L9.22725 10.0046L11.6089 4.06012H14.9518L14.9529 4.26544Z" fill="white"/>
</svg>
