<svg viewBox="0 0 28 23" fill="none" xmlns="http://www.w3.org/2000/svg">
<path d="M27.9466 3.00016C26.9199 3.46683 25.8132 3.7735 24.6666 3.92016C25.8399 3.2135 26.7466 2.0935 27.1732 0.746829C26.0666 1.4135 24.8399 1.88016 23.5466 2.14683C22.4932 1.00016 21.0132 0.333496 19.3332 0.333496C16.1999 0.333496 13.6399 2.8935 13.6399 6.0535C13.6399 6.50683 13.6932 6.94683 13.7866 7.36016C9.03989 7.12016 4.81322 4.84016 1.99989 1.38683C1.50656 2.22683 1.22656 3.2135 1.22656 4.2535C1.22656 6.24016 2.22656 8.00016 3.77322 9.00016C2.82656 9.00016 1.94656 8.7335 1.17322 8.3335C1.17322 8.3335 1.17322 8.3335 1.17322 8.3735C1.17322 11.1468 3.14656 13.4668 5.75989 13.9868C5.27989 14.1202 4.77322 14.1868 4.25322 14.1868C3.89322 14.1868 3.53322 14.1468 3.18656 14.0802C3.90656 16.3335 5.99989 18.0135 8.51989 18.0535C6.57322 19.6002 4.10656 20.5068 1.41322 20.5068C0.959889 20.5068 0.506556 20.4802 0.0532227 20.4268C2.58656 22.0535 5.59989 23.0002 8.82656 23.0002C19.3332 23.0002 25.1066 14.2802 25.1066 6.72016C25.1066 6.46683 25.1066 6.22683 25.0932 5.9735C26.2132 5.1735 27.1732 4.16016 27.9466 3.00016Z" fill="#212121"/>
</svg>
