<svg width="38" height="44" viewBox="0 0 38 44" fill="none" xmlns="http://www.w3.org/2000/svg">
<path d="M36.0808 28.1111C34.8141 26.7312 32.3192 25.233 28.6343 23.6165C25.9475 22.4731 24.604 21.2903 24.604 20.1075C24.604 19.4373 24.8343 18.8853 25.295 18.4516C25.7556 18.0179 26.2929 17.8208 26.9455 17.8208C28.2889 17.8208 29.402 18.767 30.3232 20.6595L36.0808 17.5054C34.2 13.405 31.3212 11.3548 27.4828 11.3548C26.8687 11.3548 26.2545 11.3943 25.6788 11.5125L31.1293 0H23.299L15.5455 17.3477L7.79192 0H0L15.5071 33L19.2687 25.0358C19.3838 25.233 19.5374 25.4301 19.6909 25.6272C20.497 26.6523 21.9172 27.638 23.9515 28.6631C24.6808 29.0179 25.3717 29.3728 26.0626 29.7276C26.7535 30.0824 27.4444 30.3978 28.1737 30.7921C29.9778 31.8961 30.899 33.0789 30.899 34.3405C30.899 36.5484 29.7091 37.6523 27.3677 37.6523C26.1778 37.6523 25.1798 37.2581 24.3354 36.4301C23.9131 36.0358 23.2606 35.0896 22.4545 33.5914L16.5434 36.4301C18.6545 41.4767 22.2242 44 27.2525 44C30.2081 44 32.703 43.0538 34.7758 41.1613C36.9253 39.1505 38 36.6667 38 33.6702C38 31.3047 37.3475 29.4516 36.0808 28.1111Z" fill="white"/>
</svg>
