<svg  viewBox="0 0 63 63" fill="none" xmlns="http://www.w3.org/2000/svg">
<path d="M50.3232 39.9897C48.5566 38.0577 45.0768 35.9602 39.9374 33.697C36.1899 32.0962 34.3162 30.4403 34.3162 28.7843C34.3162 27.8459 34.6374 27.0731 35.2798 26.4659C35.9222 25.8587 36.6717 25.5827 37.5818 25.5827C39.4556 25.5827 41.0081 26.9075 42.2929 29.5571L50.3232 25.1412C47.7 19.4005 43.6848 16.5301 38.3313 16.5301C37.4747 16.5301 36.6182 16.5853 35.8152 16.7509L43.4172 0.632812H32.496L21.6818 24.9204L10.8677 0.632812H0L21.6283 46.8344L26.8747 35.6842C27.0354 35.9602 27.2495 36.2361 27.4636 36.5121C28.5879 37.9473 30.5687 39.3273 33.4061 40.7625C34.4232 41.2593 35.3869 41.7561 36.3505 42.2528C37.3141 42.7496 38.2778 43.1912 39.295 43.7432C41.8111 45.2888 43.096 46.9448 43.096 48.7111C43.096 51.8023 41.4364 53.3478 38.1707 53.3478C36.5111 53.3478 35.1192 52.7958 33.9414 51.6367C33.3525 51.0847 32.4424 49.7599 31.3182 47.6623L23.0737 51.6367C26.0182 58.7021 30.997 62.2349 38.0101 62.2349C42.1323 62.2349 45.6121 60.9101 48.503 58.2605C51.501 55.4454 53 51.9679 53 47.7727C53 44.4608 52.0899 41.8664 50.3232 39.9897Z" fill="#212121"/>
</svg>
