<svg width="11" height="11" viewBox="0 0 11 11" fill="none" xmlns="http://www.w3.org/2000/svg">
<path d="M0.212812 0.641034C0.2801 0.573576 0.360035 0.520055 0.448039 0.483537C0.536044 0.447019 0.630388 0.428223 0.725668 0.428223C0.820948 0.428223 0.915292 0.447019 1.0033 0.483537C1.0913 0.520055 1.17124 0.573576 1.23852 0.641034L5.07191 4.47587L8.90529 0.641034C8.97264 0.573685 9.0526 0.52026 9.14059 0.483811C9.22859 0.447362 9.3229 0.428602 9.41815 0.428602C9.5134 0.428602 9.60771 0.447362 9.69571 0.483811C9.7837 0.52026 9.86366 0.573685 9.93101 0.641034C9.99835 0.708383 10.0518 0.788338 10.0882 0.876335C10.1247 0.964331 10.1434 1.05864 10.1434 1.15389C10.1434 1.24914 10.1247 1.34345 10.0882 1.43145C10.0518 1.51944 9.99835 1.5994 9.93101 1.66675L6.09617 5.50013L9.93101 9.33352C9.99835 9.40086 10.0518 9.48082 10.0882 9.56882C10.1247 9.65681 10.1434 9.75113 10.1434 9.84637C10.1434 9.94162 10.1247 10.0359 10.0882 10.1239C10.0518 10.2119 9.99835 10.2919 9.93101 10.3592C9.86366 10.4266 9.7837 10.48 9.69571 10.5165C9.60771 10.5529 9.5134 10.5717 9.41815 10.5717C9.3229 10.5717 9.22859 10.5529 9.14059 10.5165C9.0526 10.48 8.97264 10.4266 8.90529 10.3592L5.07191 6.52439L1.23852 10.3592C1.17118 10.4266 1.09122 10.48 1.00322 10.5165C0.915228 10.5529 0.820914 10.5717 0.725668 10.5717C0.630422 10.5717 0.536108 10.5529 0.448112 10.5165C0.360116 10.48 0.280161 10.4266 0.212812 10.3592C0.145462 10.2919 0.0920378 10.2119 0.0555886 10.1239C0.0191395 10.0359 0.000379258 9.94162 0.000379258 9.84637C0.000379258 9.75113 0.0191395 9.65681 0.0555886 9.56882C0.0920378 9.48082 0.145462 9.40086 0.212812 9.33352L4.04765 5.50013L0.212812 1.66675C0.145353 1.59946 0.0918321 1.51952 0.0553144 1.43152C0.0187966 1.34352 0 1.24917 0 1.15389C0 1.05861 0.0187966 0.964266 0.0553144 0.876262C0.0918321 0.788258 0.145353 0.708322 0.212812 0.641034Z" fill="#F9F7F0"/>
</svg>
