<svg viewBox="0 0 21 15" fill="none" xmlns="http://www.w3.org/2000/svg">
<path d="M8.18673 10.0786L13.3075 7.11858L8.18673 4.15858V10.0786ZM19.5926 2.35298C19.7209 2.81671 19.8097 3.43831 19.8689 4.22765C19.9379 5.01698 19.9675 5.69778 19.9675 6.28978L20.0267 7.11858C20.0267 9.27938 19.8689 10.8679 19.5926 11.8842C19.3459 12.7722 18.7737 13.3444 17.8857 13.5911C17.4219 13.7194 16.5734 13.8082 15.271 13.8674C13.9883 13.9364 12.8142 13.9661 11.7289 13.9661L10.1601 14.0252C6.02593 14.0252 3.45073 13.8674 2.43446 13.5911C1.54646 13.3444 0.974196 12.7722 0.727529 11.8842C0.599263 11.4204 0.510463 10.7988 0.451263 10.0095C0.382196 9.22018 0.352596 8.53938 0.352596 7.94738L0.293396 7.11858C0.293396 4.95778 0.451263 3.36925 0.727529 2.35298C0.974196 1.46498 1.54646 0.892714 2.43446 0.646048C2.8982 0.517781 3.74673 0.428981 5.04913 0.369781C6.3318 0.300714 7.50593 0.271114 8.59126 0.271114L10.1601 0.211914C14.2942 0.211914 16.8694 0.369781 17.8857 0.646048C18.7737 0.892714 19.3459 1.46498 19.5926 2.35298Z" fill="black"/>
</svg>
